<svg width="36" height="36" viewBox="0 0 36 36" fill="none" xmlns="http://www.w3.org/2000/svg">
<path d="M18 0C8.07504 0 0 8.07462 0 18C0 27.9254 8.07504 36 18 36C27.9254 36 36 27.9254 36 18C36 8.07462 27.925 0 18 0ZM18 33.3723C9.52383 33.3723 2.62772 26.4762 2.62772 18C2.62772 9.52383 9.52383 2.62772 18 2.62772C26.4762 2.62772 33.3723 9.52376 33.3723 17.9996C33.3723 26.4762 26.4762 33.3723 18 33.3723Z" fill="white"/>
<path d="M24.1313 17.9999H18.4379V10.1167C18.4379 9.39097 17.8497 8.80281 17.124 8.80281C16.3983 8.80281 15.8102 9.39097 15.8102 10.1167V19.3138C15.8102 20.0395 16.3983 20.6276 17.124 20.6276H24.1313C24.857 20.6276 25.4452 20.0395 25.4452 19.3138C25.4452 18.5881 24.857 17.9999 24.1313 17.9999Z" fill="white"/>
</svg>
