<svg width="36" height="28" viewBox="0 0 36 28" fill="none" xmlns="http://www.w3.org/2000/svg">
<path d="M32.8359 0.289062H3.16406C1.42158 0.289062 0 1.70909 0 3.45312V24.5469C0 26.285 1.41525 27.7109 3.16406 27.7109H32.8359C34.5741 27.7109 36 26.2957 36 24.5469V3.45312C36 1.715 34.5848 0.289062 32.8359 0.289062ZM32.399 2.39844L18.0671 16.7304L3.61118 2.39844H32.399ZM2.10938 24.1101V3.87985L12.2681 13.9514L2.10938 24.1101ZM3.60091 25.6016L13.766 15.4365L17.3278 18.9677C17.7401 19.3765 18.4055 19.3752 18.8161 18.9645L22.2891 15.4915L32.3991 25.6016H3.60091ZM33.8906 24.11L23.7806 14L33.8906 3.88991V24.11Z" fill="white"/>
</svg>
