<svg width="21" height="17" viewBox="0 0 21 17" fill="none" xmlns="http://www.w3.org/2000/svg">
<path d="M19.1543 0.501953H1.8457C0.829254 0.501953 0 1.3303 0 2.34766V14.6523C0 15.6663 0.825563 16.498 1.8457 16.498H19.1543C20.1682 16.498 21 15.6725 21 14.6523V2.34766C21 1.33375 20.1744 0.501953 19.1543 0.501953ZM18.8994 1.73242L10.5391 10.0928L2.10652 1.73242H18.8994ZM1.23047 14.3976V2.59658L7.15637 8.47166L1.23047 14.3976ZM2.10053 15.2676L8.03016 9.33795L10.1079 11.3978C10.3484 11.6363 10.7365 11.6355 10.9761 11.3959L13.002 9.37006L18.8995 15.2676H2.10053ZM19.7695 14.3975L13.872 8.5L19.7695 2.60245V14.3975Z" fill="#073456"/>
</svg>
