<svg width="29" height="29" viewBox="0 0 29 29" fill="none" xmlns="http://www.w3.org/2000/svg">
<path d="M14.4832 0.0020752C13.9634 0.0020752 13.444 0.0300199 12.9271 0.0857278C12.4534 0.134117 11.9855 0.213475 11.5238 0.309769C11.4345 0.32846 11.3451 0.348178 11.2557 0.368804C8.53586 0.988063 6.05229 2.3787 4.10287 4.37397C3.92159 4.55978 3.74413 4.7511 3.57059 4.94786C-1.69535 10.9934 -1.06339 20.1631 4.98216 25.429C10.77 30.4705 19.4821 30.135 24.8652 24.6635C25.0468 24.4777 25.2242 24.2864 25.3975 24.0896C27.7214 21.4431 29.0021 18.0408 29 14.5187C29 6.50133 22.5006 0.00201471 14.4832 0.0020752ZM4.7479 5.0998C4.82435 5.02045 4.90371 4.94448 4.98162 4.86754C5.07162 4.77898 5.16114 4.68995 5.25308 4.6043C5.33389 4.52881 5.41712 4.45623 5.49986 4.38268C5.59325 4.29993 5.68616 4.21719 5.78197 4.13735C5.86617 4.06621 5.95279 3.99798 6.03892 3.92927C6.1357 3.85185 6.23247 3.77443 6.33216 3.69991C6.42022 3.63362 6.50974 3.56926 6.59975 3.50635C6.69991 3.43474 6.80056 3.36118 6.90266 3.29441C6.99412 3.23247 7.08654 3.17247 7.17945 3.11295C7.283 3.04666 7.38704 2.98133 7.49204 2.91939C7.58658 2.86296 7.68173 2.80743 7.77754 2.75293C7.88466 2.69196 7.9922 2.63245 8.10029 2.57438C8.19707 2.52278 8.29385 2.47228 8.39063 2.42292C8.50095 2.36727 8.61225 2.31356 8.72403 2.26082C8.82081 2.21485 8.92146 2.16888 9.02114 2.12533C9.13485 2.07694 9.25002 2.02855 9.36518 1.98016C9.46535 1.93903 9.56503 1.89887 9.66616 1.86016C9.78327 1.81564 9.90182 1.77402 10.0204 1.73241C10.1215 1.69708 10.2226 1.66176 10.3252 1.62837C10.4457 1.58966 10.5672 1.55385 10.6891 1.51853C10.7912 1.48901 10.8923 1.45853 10.9949 1.43094C11.0341 1.42078 11.0733 1.41256 11.1125 1.40239C9.68019 2.79316 8.61727 4.5192 8.01997 6.42421C6.87145 6.1213 5.75959 5.69342 4.70435 5.14819C4.72032 5.13126 4.73386 5.11432 4.7479 5.0998ZM4.05206 5.87887C5.21443 6.50865 6.44702 6.9992 7.72431 7.34022C7.09815 9.51749 6.76947 11.7695 6.74733 14.0348H0.945483C1.05091 11.0475 2.14335 8.17935 4.05206 5.87887ZM4.05206 23.1586C2.14348 20.8581 1.05103 17.9899 0.945483 15.0026H6.74733C6.76947 17.268 7.09809 19.52 7.72431 21.6973C6.44708 22.0384 5.21449 22.5289 4.05206 23.1586ZM10.992 27.6085C10.8943 27.5838 10.7931 27.5519 10.6925 27.5223C10.5701 27.4865 10.4472 27.4507 10.3262 27.4115C10.2241 27.3786 10.1234 27.3433 10.0228 27.308C9.90375 27.2668 9.78472 27.2247 9.66713 27.1797C9.56648 27.1415 9.46728 27.1014 9.3676 27.0607C9.25195 27.0123 9.1363 26.9639 9.02162 26.9155C8.92291 26.872 8.82468 26.8272 8.72693 26.781C8.61418 26.7278 8.50192 26.6736 8.38821 26.6175C8.29143 26.5691 8.19465 26.5207 8.09787 26.4679C7.98851 26.4094 7.88012 26.3494 7.77173 26.2874C7.67495 26.2337 7.58301 26.1786 7.48962 26.1224C7.38317 26.0586 7.27865 25.9928 7.17413 25.9255C7.08219 25.8669 6.99025 25.8074 6.89976 25.7465C6.79669 25.6768 6.69459 25.6042 6.59346 25.5316C6.5049 25.4682 6.41635 25.4048 6.32925 25.3381C6.22909 25.2626 6.13086 25.1847 6.03311 25.1063C5.94746 25.038 5.8623 24.9703 5.77858 24.9001C5.68181 24.8198 5.58842 24.7361 5.49454 24.6529C5.41228 24.5798 5.32953 24.5077 5.24921 24.4332C5.15678 24.347 5.06727 24.2575 4.97726 24.169C4.89935 24.092 4.82 24.0161 4.74354 23.9372C4.72951 23.9222 4.71596 23.9067 4.70193 23.8922C5.75711 23.3467 6.86897 22.9187 8.01755 22.6157C8.61497 24.5206 9.67784 26.2466 11.1101 27.6375C11.0709 27.6273 11.0312 27.6191 10.992 27.6085ZM13.9994 28.0295C11.9288 27.7352 10.1138 25.5742 8.97178 22.3829C10.6228 22.0132 12.3077 21.8149 13.9994 21.7911V28.0295ZM13.9994 20.8234C12.2048 20.8469 10.4177 21.0601 8.6679 21.4592C8.06031 19.3599 7.73979 17.1879 7.71512 15.0026H13.9994V20.8234ZM13.9994 14.0348H7.71512C7.73973 11.8495 8.06025 9.67759 8.6679 7.57829C10.4177 7.97732 12.2048 8.19048 13.9994 8.21413V14.0348ZM13.9994 7.24634C12.3076 7.22275 10.6228 7.02442 8.97178 6.65455C10.1138 3.46329 11.9288 1.30223 13.9994 1.00802V7.24634ZM24.9145 5.87887C26.8231 8.17941 27.9156 11.0475 28.0211 14.0348H22.2193C22.1971 11.7695 21.8685 9.51749 21.2423 7.34022C22.5195 6.99902 23.7521 6.50853 24.9145 5.87887ZM17.9707 1.42852C18.0723 1.45369 18.1734 1.48562 18.2741 1.51514C18.3965 1.55095 18.5194 1.58676 18.6404 1.62595C18.7425 1.65886 18.8432 1.69418 18.9438 1.7295C19.0628 1.77064 19.1819 1.81273 19.2995 1.85774C19.4001 1.89596 19.4993 1.93613 19.599 1.97677C19.7146 2.02516 19.8303 2.07355 19.945 2.12194C20.0437 2.16549 20.1419 2.21031 20.2397 2.25646C20.3524 2.30969 20.4647 2.36389 20.5784 2.42002C20.6752 2.46841 20.7719 2.5168 20.8687 2.56954C20.9781 2.62809 21.0865 2.68809 21.1949 2.75003C21.2916 2.80374 21.3836 2.85891 21.477 2.91504C21.5834 2.97891 21.6879 3.04472 21.7925 3.11198C21.8844 3.17053 21.9763 3.23005 22.0668 3.29102C22.1699 3.3607 22.2715 3.4328 22.3727 3.50538C22.4617 3.56877 22.5502 3.63265 22.6378 3.69894C22.7375 3.77394 22.8353 3.85185 22.9335 3.93024C23.0186 3.99798 23.1043 4.06573 23.188 4.13638C23.2848 4.2167 23.3782 4.30042 23.4721 4.38365C23.5543 4.45671 23.6371 4.52881 23.7174 4.60333C23.8098 4.68947 23.8993 4.77898 23.9893 4.86754C24.0672 4.94448 24.1466 5.02045 24.2231 5.09932C24.2371 5.11432 24.2506 5.12981 24.2647 5.14432C23.2095 5.68979 22.0976 6.11785 20.949 6.42083C20.3505 4.51563 19.2862 2.78977 17.8526 1.39949C17.8918 1.40965 17.9315 1.41788 17.9707 1.42852ZM14.9672 1.00802C17.0378 1.30223 18.8528 3.46329 19.9948 6.65455C18.3438 7.02424 16.6589 7.22257 14.9672 7.24634V1.00802ZM14.9672 8.21413C16.7618 8.19054 18.5489 7.97738 20.2987 7.57829C20.9063 9.67759 21.2268 11.8495 21.2515 14.0348H14.9672V8.21413ZM14.9672 15.0026H21.2515C21.2269 17.1879 20.9063 19.3599 20.2987 21.4592C18.5489 21.0602 16.7618 20.847 14.9672 20.8234V15.0026ZM14.9672 28.0295V21.7911C16.659 21.8147 18.3438 22.0131 19.9948 22.3829C18.8528 25.5742 17.0378 27.7352 14.9672 28.0295ZM24.2187 23.9377C24.1422 24.0165 24.0634 24.0925 23.9855 24.1695C23.8955 24.258 23.8055 24.3475 23.713 24.4337C23.6327 24.5087 23.55 24.5788 23.4677 24.6538C23.3738 24.7371 23.2804 24.8203 23.1846 24.9006C23.0999 24.9713 23.0138 25.0395 22.9277 25.1082C22.8309 25.1856 22.7341 25.2631 22.6344 25.3376C22.5464 25.4039 22.4568 25.4682 22.3668 25.5311C22.2667 25.6027 22.166 25.6763 22.0639 25.7431C21.9725 25.805 21.8801 25.865 21.7871 25.924C21.6836 25.9908 21.5793 26.0554 21.4741 26.1176C21.3773 26.1742 21.2849 26.2294 21.1895 26.2841C21.0824 26.345 20.9747 26.4045 20.8663 26.4626C20.7695 26.5142 20.6727 26.5647 20.576 26.6141C20.4656 26.6697 20.3543 26.7234 20.2426 26.7762C20.1458 26.8221 20.0451 26.8681 19.9455 26.9117C19.8317 26.9601 19.7166 27.0084 19.6014 27.0568C19.5012 27.0975 19.4016 27.1381 19.3009 27.1764C19.1828 27.2214 19.0643 27.2635 18.9453 27.3046C18.8446 27.3399 18.744 27.3752 18.6419 27.4081C18.5209 27.4473 18.3999 27.4831 18.2765 27.5185C18.1754 27.5485 18.0738 27.5785 17.9717 27.6061C17.9325 27.6162 17.8933 27.6244 17.8541 27.6346C19.2864 26.2438 20.3493 24.5178 20.9466 22.6128C22.0951 22.9157 23.207 23.3436 24.2622 23.8888C24.2463 23.9062 24.2327 23.9232 24.2187 23.9377ZM24.9145 23.1586C23.7522 22.5288 22.5196 22.0383 21.2423 21.6973C21.8684 19.52 22.1971 17.268 22.2193 15.0026H28.0211C27.9157 17.9899 26.8232 20.8581 24.9145 23.1586Z" fill="#073456"/>
</svg>
