<svg width="42" height="42" viewBox="0 0 42 42" fill="none" xmlns="http://www.w3.org/2000/svg">
<path d="M35.8477 0H6.15234C2.76022 0 0 2.76022 0 6.15234V35.8477C0 39.2398 2.76022 42 6.15234 42H35.8477C39.2398 42 42 39.2398 42 35.8477V6.15234C42 2.76022 39.2398 0 35.8477 0ZM21.082 31.9922C14.9755 31.9922 10.0078 27.0245 10.0078 20.918C10.0078 14.8114 14.9755 9.84375 21.082 9.84375C27.1886 9.84375 32.1562 14.8114 32.1562 20.918C32.1562 27.0245 27.1886 31.9922 21.082 31.9922ZM33.3867 12.3047C31.3513 12.3047 29.6953 10.6487 29.6953 8.61328C29.6953 6.57788 31.3513 4.92188 33.3867 4.92188C35.4221 4.92188 37.0781 6.57788 37.0781 8.61328C37.0781 10.6487 35.4221 12.3047 33.3867 12.3047Z" fill="white"/>
</svg>
