<svg width="49" height="49" viewBox="0 0 49 49" fill="none" xmlns="http://www.w3.org/2000/svg">
<path d="M24.5 0C15.0013 0 7.27344 7.72784 7.27344 17.2266C7.27344 20.4359 8.16242 23.5679 9.84489 26.2851L23.5194 48.3214C23.7814 48.7435 24.2428 49 24.7392 49C24.743 49 24.7467 49 24.7506 49C25.2512 48.9961 25.7136 48.7316 25.9708 48.3021L39.2968 26.0523C40.8864 23.3925 41.7266 20.3406 41.7266 17.2266C41.7266 7.72784 33.9987 0 24.5 0ZM36.8329 24.5783L24.7174 44.8069L12.2851 24.7724C10.8847 22.5107 10.1254 19.9015 10.1254 17.2266C10.1254 9.31096 16.5844 2.85195 24.5 2.85195C32.4156 2.85195 38.865 9.31096 38.865 17.2266C38.865 19.8221 38.1558 22.3647 36.8329 24.5783Z" fill="white"/>
<path d="M24.5 8.61328C19.7506 8.61328 15.8867 12.4772 15.8867 17.2266C15.8867 21.9456 19.6878 25.8398 24.5 25.8398C29.3716 25.8398 33.1133 21.8937 33.1133 17.2266C33.1133 12.4772 29.2494 8.61328 24.5 8.61328ZM24.5 22.9879C21.3172 22.9879 18.7387 20.4007 18.7387 17.2266C18.7387 14.0603 21.3338 11.4652 24.5 11.4652C27.6662 11.4652 30.2518 14.0603 30.2518 17.2266C30.2518 20.3544 27.7332 22.9879 24.5 22.9879Z" fill="white"/>
</svg>
