<svg width="23" height="25" viewBox="0 0 23 25" fill="none" xmlns="http://www.w3.org/2000/svg">
<path d="M11.4093 13.4707C11.4352 13.4707 11.4611 13.4707 11.4921 13.4707C11.5025 13.4707 11.5128 13.4707 11.5232 13.4707C11.5387 13.4707 11.5594 13.4707 11.575 13.4707C13.0918 13.4448 14.3188 12.9116 15.2248 11.8917C17.2179 9.64485 16.8866 5.79313 16.8504 5.42555C16.721 2.66618 15.4163 1.34603 14.3395 0.729965C13.5371 0.269207 12.6 0.0207082 11.5542 0H11.518C11.5128 0 11.5025 0 11.4973 0H11.4662C10.8916 0 9.76299 0.093187 8.68098 0.709257C7.5938 1.32533 6.26847 2.64548 6.13905 5.42555C6.10281 5.79313 5.77148 9.64485 7.76464 11.8917C8.66545 12.9116 9.89241 13.4448 11.4093 13.4707ZM7.52132 5.55498C7.52132 5.53945 7.5265 5.52392 7.5265 5.51356C7.69734 1.80162 10.3325 1.40298 11.4611 1.40298H11.4818C11.4921 1.40298 11.5077 1.40298 11.5232 1.40298C12.921 1.43404 15.2973 2.00352 15.4578 5.51356C15.4578 5.5291 15.4578 5.54463 15.4629 5.55498C15.4681 5.59122 15.8305 9.11162 14.1842 10.965C13.5319 11.7001 12.6621 12.0625 11.518 12.0729C11.5077 12.0729 11.5025 12.0729 11.4921 12.0729C11.4818 12.0729 11.4766 12.0729 11.4662 12.0729C10.3273 12.0625 9.45236 11.7001 8.80523 10.965C7.1641 9.12197 7.51614 5.58604 7.52132 5.55498Z" fill="#073456"/>
<path d="M22.131 19.8592C22.131 19.854 22.131 19.8488 22.131 19.8437C22.131 19.8023 22.1258 19.7608 22.1258 19.7142C22.0948 18.6892 22.0275 16.2922 19.7806 15.526C19.7651 15.5208 19.7444 15.5157 19.7288 15.5105C17.394 14.9151 15.4526 13.5691 15.4319 13.5536C15.1161 13.3309 14.6812 13.4086 14.4586 13.7244C14.236 14.0402 14.3137 14.4751 14.6294 14.6977C14.7175 14.7598 16.7779 16.1939 19.3561 16.8565C20.5624 17.2862 20.697 18.5753 20.7332 19.7557C20.7332 19.8023 20.7332 19.8437 20.7384 19.8851C20.7436 20.351 20.7125 21.0706 20.6297 21.4848C19.791 21.9611 16.5035 23.6074 11.5025 23.6074C6.52218 23.6074 3.21405 21.9559 2.37019 21.4796C2.28735 21.0655 2.25111 20.3458 2.26147 19.8799C2.26147 19.8385 2.26665 19.7971 2.26665 19.7505C2.30288 18.5701 2.43749 17.281 3.64374 16.8513C6.22191 16.1887 8.28238 14.7495 8.37039 14.6925C8.68619 14.4699 8.76385 14.035 8.54123 13.7192C8.31862 13.4034 7.88375 13.3258 7.56795 13.5484C7.54724 13.5639 5.6162 14.9099 3.27099 15.5053C3.25029 15.5105 3.23475 15.5157 3.21922 15.5208C0.972382 16.2922 0.90508 18.6892 0.874018 19.7091C0.874018 19.7557 0.874018 19.7971 0.868841 19.8385C0.868841 19.8437 0.868841 19.8488 0.868841 19.854C0.863664 20.1232 0.858487 21.5055 1.13287 22.1992C1.18464 22.3338 1.27783 22.4477 1.40208 22.5254C1.55739 22.6289 5.27969 25 11.5077 25C17.7357 25 21.458 22.6237 21.6133 22.5254C21.7324 22.4477 21.8307 22.3338 21.8825 22.1992C22.1414 21.5107 22.1362 20.1284 22.131 19.8592Z" fill="#073456"/>
</svg>
