<svg width="21" height="21" viewBox="0 0 21 21" fill="none" xmlns="http://www.w3.org/2000/svg">
<path d="M20.4405 3.4089L17.5769 0.542861C16.8554 -0.179263 15.6002 -0.18065 14.8759 0.544248L2.0474 13.4993C1.99053 13.5567 1.9495 13.6271 1.92713 13.7046L0.0180743 20.392C-0.0294886 20.5586 0.0171347 20.7382 0.139734 20.8609C0.230609 20.9518 0.352268 21.0008 0.477194 21.0008C0.520998 21.0008 0.565295 20.9947 0.608159 20.9826L7.28993 19.0719C7.36729 19.0495 7.43767 19.0085 7.49499 18.9516L20.4405 6.11077C20.8013 5.74973 20.9998 5.27016 20.9998 4.75986C20.9998 4.24955 20.8013 3.76994 20.4405 3.4089ZM12.7961 4.01603L14.5529 5.77286L5.38057 14.9453L4.72229 13.6283C4.64117 13.4665 4.4762 13.3645 4.29534 13.3645H3.53102L12.7961 4.01603ZM1.17211 19.8286L1.79379 17.6524L3.34829 19.2069L1.17211 19.8286ZM6.68168 18.2546L4.39816 18.9069L2.09371 16.6025L2.74603 14.319H4.00025L4.82287 15.9643C4.86901 16.0566 4.94404 16.1316 5.03635 16.1777L6.68163 17.0004V18.2546H6.68168ZM7.63625 17.4697V16.7054C7.63625 16.5245 7.53419 16.3595 7.37244 16.2784L6.05544 15.6201L15.2278 6.44778L16.9846 8.20461L7.63625 17.4697ZM19.767 5.44708L17.6625 7.53273L13.4679 3.33811L15.5522 1.2351C15.913 0.874325 16.5412 0.874325 16.902 1.2351L19.7656 4.09872C19.946 4.27908 20.0453 4.51864 20.0453 4.77359C20.0453 5.02854 19.946 5.2681 19.767 5.44708Z" fill="#073456"/>
</svg>
