<svg width="36" height="36" viewBox="0 0 36 36" fill="none" xmlns="http://www.w3.org/2000/svg">
<path d="M35.0553 27.7728L27.7688 22.9135C26.8441 22.3018 25.6046 22.5031 24.921 23.376L22.7985 26.105C22.5257 26.4647 22.0299 26.569 21.6353 26.3498L21.2316 26.1272C19.8931 25.3977 18.2278 24.4895 14.8725 21.133C11.5172 17.7765 10.6072 16.1099 9.87763 14.7739L9.65625 14.3702C9.43402 13.9757 9.53638 13.4777 9.89619 13.2028L12.6233 11.0809C13.4959 10.3972 13.6975 9.15807 13.0865 8.23311L8.22722 0.946582C7.60104 0.00467454 6.34474 -0.27808 5.37534 0.304653L2.32838 2.13497C1.37101 2.69781 0.668621 3.60934 0.368501 4.67857C-0.728703 8.67636 0.0967125 15.5759 10.2604 25.7409C18.3454 33.8252 24.3644 35.9993 28.5014 35.9993C29.4535 36.0034 30.4018 35.8795 31.321 35.631C32.3904 35.3312 33.3021 34.6288 33.8646 33.6711L35.6967 30.626C36.2803 29.6564 35.9977 28.3993 35.0553 27.7728ZM34.663 30.0104L32.8351 33.0574C32.4312 33.7486 31.7755 34.2568 31.0053 34.4756C27.3147 35.4889 20.8668 34.6496 11.1093 24.892C1.35168 15.1345 0.512479 8.68719 1.52574 4.99598C1.7448 4.22491 2.25365 3.56836 2.9457 3.16384L5.99267 1.33591C6.41328 1.08283 6.95855 1.2055 7.23026 1.61424L9.8699 5.57724L12.0854 8.90014C12.3507 9.30135 12.2635 9.83909 11.885 10.136L9.15724 12.2578C8.32712 12.8926 8.09006 14.0411 8.60115 14.9527L8.81776 15.3462C9.58447 16.7524 10.5377 18.5017 14.0178 21.9812C17.4979 25.4607 19.2466 26.414 20.6522 27.1806L21.0463 27.3978C21.9578 27.9088 23.1064 27.6718 23.7411 26.8417L25.863 24.1139C26.1599 23.7356 26.6975 23.6485 27.0988 23.9136L34.3847 28.7728C34.7937 29.0443 34.9164 29.5899 34.663 30.0104Z" fill="white"/>
</svg>
